<svg width="20" height="17" viewBox="0 0 20 17" fill="none" xmlns="http://www.w3.org/2000/svg">
<path d="M0.833374 11.0833C0.833374 9.14299 1.85362 7.44091 3.38692 6.48432C3.80395 3.20332 6.60576 0.666656 10 0.666656C13.3943 0.666656 16.1961 3.20332 16.6131 6.48432C18.1465 7.44091 19.1667 9.14299 19.1667 11.0833C19.1667 13.9347 16.9635 16.2714 14.1667 16.4842L5.83337 16.5C3.03652 16.2714 0.833374 13.9347 0.833374 11.0833ZM14.0403 14.8223C15.9848 14.6744 17.5 13.0467 17.5 11.0833C17.5 9.77249 16.8237 8.58016 15.731 7.89841L15.0595 7.47949L14.9598 6.69447C14.6446 4.21502 12.524 2.33332 10 2.33332C7.47601 2.33332 5.35543 4.21502 5.04029 6.69447L4.94051 7.47949L4.26911 7.89841C3.17634 8.58016 2.50004 9.77249 2.50004 11.0833C2.50004 13.0467 4.01532 14.6744 5.95979 14.8223L6.10421 14.8333H13.8959L14.0403 14.8223ZM10.8334 9.83332V13.1667H9.16671V9.83332H6.66671L10 5.66666L13.3334 9.83332H10.8334Z" fill="white"/>
</svg>
