<svg width="20" height="14" viewBox="0 0 20 14" fill="none" xmlns="http://www.w3.org/2000/svg">
<path d="M9.99992 4.5C10.663 4.5 11.2988 4.76339 11.7677 5.23223C12.2365 5.70107 12.4999 6.33696 12.4999 7C12.4999 7.66304 12.2365 8.29893 11.7677 8.76777C11.2988 9.23661 10.663 9.5 9.99992 9.5C9.33688 9.5 8.70099 9.23661 8.23215 8.76777C7.76331 8.29893 7.49992 7.66304 7.49992 7C7.49992 6.33696 7.76331 5.70107 8.23215 5.23223C8.70099 4.76339 9.33688 4.5 9.99992 4.5ZM9.99992 0.75C14.1666 0.75 17.7249 3.34167 19.1666 7C17.7249 10.6583 14.1666 13.25 9.99992 13.25C5.83325 13.25 2.27492 10.6583 0.833252 7C2.27492 3.34167 5.83325 0.75 9.99992 0.75ZM2.64992 7C3.32346 8.37526 4.36934 9.53396 5.66865 10.3444C6.96796 11.1548 8.46858 11.5844 9.99992 11.5844C11.5313 11.5844 13.0319 11.1548 14.3312 10.3444C15.6305 9.53396 16.6764 8.37526 17.3499 7C16.6764 5.62474 15.6305 4.46604 14.3312 3.65562C13.0319 2.8452 11.5313 2.41557 9.99992 2.41557C8.46858 2.41557 6.96796 2.8452 5.66865 3.65562C4.36934 4.46604 3.32346 5.62474 2.64992 7Z" fill="#585858"/>
</svg>
